<svg width="58" height="58" viewBox="0 0 58 58" fill="none" xmlns="http://www.w3.org/2000/svg">
<path fill-rule="evenodd" clip-rule="evenodd" d="M0 13.4253V43.8007C0 51.2152 6.01065 57.2258 13.4252 57.2258H43.8007C51.2152 57.2258 57.2258 51.2152 57.2258 43.8007V13.4253C57.2258 6.01073 51.2151 0 43.8005 0H13.4253C6.01073 0 0 6.01073 0 13.4253ZM5.25905 14.5866C5.25905 9.43515 9.43515 5.25905 14.5866 5.25905H42.6394C47.7907 5.25905 51.9668 9.43507 51.9668 14.5865V42.6394C51.9668 47.7907 47.7907 51.9668 42.6394 51.9668H14.5866C9.43515 51.9668 5.25905 47.7907 5.25905 42.6392V14.5866ZM20.5314 28.6129C20.5314 33.069 24.1568 36.6944 28.6129 36.6944C33.069 36.6944 36.6944 33.069 36.6944 28.6129C36.6944 24.1568 33.069 20.5314 28.6129 20.5314C24.1568 20.5314 20.5314 24.1568 20.5314 28.6129ZM15.7751 28.6129C15.7751 21.534 21.534 15.7751 28.6129 15.7751C35.6918 15.7751 41.4508 21.534 41.4508 28.6129C41.4508 35.6918 35.6918 41.4508 28.6129 41.4508C21.534 41.4508 15.7751 35.6918 15.7751 28.6129ZM43.3289 10.8248C45.173 10.8248 46.6676 12.3197 46.6676 14.1636C46.6676 16.0076 45.173 17.5025 43.3289 17.5025C41.4849 17.5025 39.9901 16.0076 39.9901 14.1636C39.9901 12.3197 41.4849 10.8248 43.3289 10.8248Z" fill="black"/>
</svg>
